<svg width="176" height="199" viewBox="0 0 176 199" fill="none" xmlns="http://www.w3.org/2000/svg">
<path d="M133.569 -29.2575C140.792 -38.4192 148.015 -47.5808 155.238 -56.7425C158.753 -53.7604 162.233 -50.7602 166.119 -46.3884C168.036 -44.1666 170.095 -41.6702 172.115 -37.756C174.049 -34.0353 176.202 -27.4806 174.514 -20.4005C171.28 -8.93133 164.654 -5.68177 160.757 -2.97984C156.455 -0.405762 152.775 1.07619 149.147 2.44634C141.986 5.07756 135.297 6.85459 128.564 8.53092L128.642 8.50873C117.176 11.3623 104.688 15.2015 97.7196 19.6667C96.9717 20.149 96.3907 20.6274 96.2321 20.7357C96.029 20.8422 96.4576 20.5333 96.8369 18.8253C97.2868 17.1279 96.5945 14.3614 95.9489 13.5837C95.3265 12.6888 95.2427 12.9175 95.6148 13.2419C97.4322 14.9772 103.03 17.4315 108.367 19.0933L108.779 19.215C117.328 22.2819 125.588 25.1354 134.787 29.9539C137.027 31.1769 139.518 32.6139 142.15 34.7367C144.506 36.9216 148.968 39.8689 149.935 48.2133C150.153 56.9138 145.305 60.7213 142.929 62.9213C140.286 65.1126 137.723 66.5458 135.472 67.7104C117.194 76.2699 100.492 79.6399 83.1807 83.9683L83.6315 83.8327C70.7303 87.6998 56.9899 91.4889 46.918 97.1016C45.7562 97.792 44.754 98.5222 44.1905 99.0485C43.9 99.3148 43.7563 99.4976 43.735 99.4796C43.7101 99.4715 43.8107 99.1775 43.791 98.7903C43.7798 98.4066 43.6345 98.0852 43.594 98.0807C43.5507 98.0651 43.6309 98.2855 43.8566 98.5921C44.2872 99.2027 45.2476 100.109 46.2957 100.909C50.782 104.283 56.9484 107.184 63.0696 109.853L63.1573 109.888C70.1368 113.063 77.076 116.114 84.0856 120.42C87.4088 122.888 91.6303 124.256 94.1714 131.506C95.2479 135.581 92.7761 139.514 90.9661 141.133C89.0833 142.954 87.0854 144.133 85.2737 145.105C70.3969 152.186 55.6967 154.747 40.7888 158.07L40.9923 158.012C33.2044 160.221 25.5374 162.574 18.2422 165.617C11.4336 168.679 2.20042 172.595 2.88219 179.697C4.49446 186.843 11.9022 192.311 17.8559 197.607C17.6496 197.869 17.4432 198.131 17.2369 198.393C10.8894 193.313 3.15021 189.171 0.224991 180.176C-0.923233 175.293 2.53787 170.93 5.73671 168.322C9.01935 165.59 12.7242 163.512 16.3998 161.641C23.7751 157.945 31.4027 155.02 39.1465 152.235L39.3499 152.178C53.672 147.999 68.7737 143.932 80.7144 137.117C82.0578 136.283 83.3996 135.268 84.0874 134.453C84.4537 134.035 84.61 133.691 84.592 133.633C84.567 133.554 84.49 133.879 84.491 133.935C84.5323 134.052 83.8263 133.033 82.6962 132.224C81.579 131.371 80.1331 130.501 78.6519 129.711C72.545 126.506 65.5071 123.912 58.4943 121.302L58.582 121.337C51.844 118.89 45.2817 116.546 38.3944 112.169C35.3613 109.745 29.9533 107.479 29.3308 98.2843C30.3172 89.2957 35.4821 87.0107 38.5612 84.4265C52.0798 75.7399 64.8739 71.7538 77.9873 66.7044L78.4381 66.5687C94.7229 61.3897 112.137 56.0369 125.036 48.73C126.447 47.8788 127.839 46.8602 128.367 46.2793C128.658 45.9855 128.671 45.8134 128.358 46.2197C128.05 46.5992 127.315 48.0802 127.432 49.914C127.546 51.7577 128.246 52.7828 128.4 53.0502C128.579 53.3305 128.411 53.157 128.027 52.9143C127.279 52.4164 125.772 51.6028 124.237 50.9229C117.646 48.0088 109.404 45.6238 101.198 43.3379L101.61 43.4596C94.6397 41.5785 88.0402 40.2218 79.4464 34.3721C77.3494 32.8037 74.8762 30.75 72.6565 27.1131C70.388 23.6155 69.059 17.5163 70.2613 12.7247C72.8886 3.15375 77.6785 0.247398 81.0252 -2.72115C95.0508 -12.8542 107.334 -16.4324 120.198 -20.8698L120.276 -20.892C126.28 -22.8243 132.145 -24.8814 137.145 -27.1467C139.623 -28.2685 141.906 -29.4992 143.211 -30.4757C143.826 -30.9237 144.186 -31.3504 143.92 -31.174C143.718 -31.0365 142.595 -29.9448 142.001 -27.5975C141.639 -26.1902 141.667 -24.6392 141.846 -23.664C142.017 -22.6798 142.237 -22.196 142.273 -22.0451C142.372 -21.7512 141.844 -22.4636 140.998 -23.2549C139.254 -24.9448 136.52 -27.1143 133.569 -29.2575Z" fill="#FFE682"/>
</svg>
