<svg width="184" height="40" viewBox="0 0 184 40" fill="none" xmlns="http://www.w3.org/2000/svg">
<path d="M20 10.04C25.4998 10.04 29.9997 14.5298 30 20.0596C30.0054 22.4452 29.158 24.7549 27.6104 26.5703C26.0626 28.3858 23.916 29.5878 21.5596 29.96V22.96H23.8896L24.3398 20.0596H21.5596V18.1797C21.5597 17.3898 21.9506 16.6201 23.1904 16.6201H24.4502V14.1504C24.4502 14.1504 23.3097 13.96 22.2197 13.96C19.93 13.9601 18.4406 15.34 18.4404 17.8496V20.0596H15.9004V22.96H18.4404V29.96C13.6604 29.21 10 25.0596 10 20.0596C10.0003 14.5298 14.5002 10.04 20 10.04Z" fill="#828282"/>
<path d="M75 11C75.5304 11 76.039 11.2109 76.4141 11.5859C76.7891 11.961 77 12.4696 77 13V27C77 27.5304 76.7891 28.039 76.4141 28.4141C76.039 28.7891 75.5304 29 75 29H61C60.4696 29 59.961 28.7891 59.5859 28.4141C59.2109 28.039 59 27.5304 59 27V13C59 12.4696 59.2109 11.961 59.5859 11.5859C59.961 11.2109 60.4696 11 61 11H75ZM61.5 26.5H64.2695V18.1299H61.5V26.5ZM71.2402 17.9404C70.3902 17.9404 69.3999 18.4602 68.9199 19.2402V18.1299H66.1299V26.5H68.9199V21.5703C68.9199 20.8005 69.5398 20.1702 70.3096 20.1699C70.6808 20.1699 71.0373 20.3176 71.2998 20.5801C71.5624 20.8426 71.71 21.199 71.71 21.5703V26.5H74.5V21.2002C74.5 20.3356 74.1563 19.5059 73.5449 18.8945C72.9336 18.2834 72.1046 17.9405 71.2402 17.9404ZM62.8799 13.1904C62.4317 13.1905 62.0015 13.3677 61.6846 13.6846C61.3677 14.0015 61.1905 14.4317 61.1904 14.8799C61.1904 15.8098 61.9499 16.5595 62.8799 16.5596C63.3254 16.5596 63.7533 16.3834 64.0684 16.0684C64.3834 15.7533 64.5596 15.3254 64.5596 14.8799C64.5595 13.9499 63.8098 13.1904 62.8799 13.1904Z" fill="#828282"/>
<path d="M116 13C120.19 13 122.8 13.1604 123.83 13.4404C124.73 13.6904 125.31 14.2701 125.56 15.1699C125.69 15.6399 125.78 16.2703 125.84 17.0703C125.91 17.8702 125.94 18.5602 125.94 19.1602L126 20C126 22.19 125.84 23.8001 125.56 24.8301C125.31 25.7299 124.73 26.3096 123.83 26.5596C123.36 26.6896 122.5 26.7798 121.18 26.8398C119.88 26.9098 118.69 26.9404 117.59 26.9404L116 27C111.81 27 109.2 26.8396 108.17 26.5596C107.27 26.3096 106.69 25.7299 106.44 24.8301C106.31 24.3601 106.22 23.7297 106.16 22.9297C106.09 22.1298 106.06 21.4398 106.06 20.8398L106 20C106 17.81 106.16 16.1999 106.44 15.1699C106.69 14.2701 107.27 13.6904 108.17 13.4404C108.64 13.3104 109.5 13.2202 110.82 13.1602C112.12 13.0902 113.31 13.0596 114.41 13.0596L116 13ZM114 23L119.19 20L114 17V23Z" fill="#828282"/>
<path d="M168.2 10C171.4 10.0001 174 12.6 174 15.7998V24.2002C174 25.7384 173.388 27.2131 172.301 28.3008C171.213 29.3884 169.738 29.9999 168.2 30H159.8C156.6 29.9999 154 27.4 154 24.2002V15.7998C154 14.2616 154.612 12.7869 155.699 11.6992C156.787 10.6116 158.262 10.0001 159.8 10H168.2ZM159.6 12C158.645 12.0001 157.73 12.3796 157.055 13.0547C156.38 13.7297 156 14.645 156 15.5996V24.4004C156 26.3901 157.61 27.9998 159.6 28H168.4C169.355 27.9999 170.27 27.6204 170.945 26.9453C171.62 26.2703 172 25.355 172 24.4004V15.5996C172 13.6099 170.39 12.0002 168.4 12H159.6ZM164 15C165.326 15 166.597 15.5272 167.535 16.4648C168.473 17.4025 169 18.6739 169 20C169 21.3261 168.473 22.5975 167.535 23.5352C166.597 24.4728 165.326 25 164 25C162.674 25 161.403 24.4728 160.465 23.5352C159.527 22.5975 159 21.3261 159 20C159 18.6739 159.527 17.4025 160.465 16.4648C161.403 15.5272 162.674 15 164 15ZM164 17C163.204 17 162.442 17.3163 161.879 17.8789C161.316 18.4415 161 19.2044 161 20C161 20.7956 161.316 21.5585 161.879 22.1211C162.442 22.6837 163.204 23 164 23C164.796 23 165.558 22.6837 166.121 22.1211C166.684 21.5585 167 20.7956 167 20C167 19.2044 166.684 18.4415 166.121 17.8789C165.558 17.3163 164.796 17 164 17ZM169.25 13.5C169.582 13.5 169.899 13.6318 170.134 13.8662C170.368 14.1006 170.5 14.4185 170.5 14.75C170.5 15.0815 170.368 15.3994 170.134 15.6338C169.899 15.8682 169.582 16 169.25 16C168.918 16 168.601 15.8682 168.366 15.6338C168.132 15.3994 168 15.0815 168 14.75C168 14.4185 168.132 14.1006 168.366 13.8662C168.601 13.6318 168.918 13.5 169.25 13.5Z" fill="#828282"/>
</svg>
