<svg width="388" height="340" viewBox="0 0 388 340" fill="none" xmlns="http://www.w3.org/2000/svg">
<path d="M46.7069 -50.7716C36.9713 -57.2004 27.2357 -63.6292 17.5001 -70.058C13.272 -63.3486 9.17241 -56.5662 5.48815 -48.2976C2.33298 -40.2158 -2.89427 -29.8121 2.00594 -14.2547C6.74578 -1.49145 17.2414 4.09421 24.4395 7.0777C31.946 10.0825 38.8316 11.4687 45.4803 12.5671C58.7415 14.6411 71.2349 15.2361 83.8079 15.6021L83.7187 15.5978C105.691 16.404 129.12 18.1422 145.847 25.2823C149.763 26.9464 152.443 29.5153 152.379 29.6146C152.417 29.6403 152.401 29.512 152.425 29.4414C152.444 29.3675 152.492 29.3925 152.474 29.6255C152.455 30.0871 152.03 31.3512 151.115 32.8129C147.199 39.0773 138.429 46.0532 129.533 51.9317L129.139 52.1913C116.133 61.6084 103.354 70.69 90.9879 83.067C85.6348 89.7632 76.2874 95.2701 77.3561 113.171C79.0069 122.063 85.4239 126.945 89.7692 129.544C94.3897 132.26 98.8676 133.815 103.021 135.066C136.476 143.571 167.381 143.132 199.064 144.089L198.546 144.056C222.946 146.128 248.519 147.372 269.596 154.708C293.42 159.525 266.523 183.337 249.694 197.676L249.614 197.741C239.288 206.733 228.921 215.557 219.538 226.328C215.193 231.86 209.67 237.404 209.185 247.468C209.114 252.644 212.582 257.447 215.973 259.795C219.422 262.32 223 263.717 226.443 264.852C254.29 272.332 281.33 271.045 308.608 271.121L308.373 271.111C323.312 272.103 338.066 273.428 352.493 276.442C365.992 279.572 384.027 284.134 384.907 299.19C384.791 313.436 375.482 326.409 367.958 338.891C368.236 339.075 368.514 339.259 368.792 339.443C376.779 327.105 386.735 315.004 387.605 299.107C386.851 281.076 366.973 275.943 353.498 272.143C338.792 268.48 323.928 266.58 308.882 265.002L308.646 264.992C281.801 263.982 253.879 263.783 229.441 256.111C223.651 254.123 218.623 250.473 219.203 247.421C219.274 243.647 223.425 237.985 227.62 233.485C236.413 224.114 246.984 215.702 257.5 207.247L257.42 207.312C267.463 199.43 277.31 191.622 285.858 180.792C289.689 175.382 295.065 168.51 292.93 157.813C289.862 147.232 281.506 143.579 275.465 140.687C249.759 130.789 225.165 129.302 200.224 126.086L199.707 126.053C168.93 124.084 136.699 122.601 109.529 114.427C106.4 113.371 103.298 112.03 101.322 110.717C100.335 110.076 99.6328 109.415 99.4301 109.112C99.3176 108.955 99.3278 108.906 99.3845 108.976C99.442 109.044 99.531 109.23 99.5765 109.398C99.676 109.767 99.5958 109.773 99.8362 109.177C100.056 108.624 100.576 107.649 101.31 106.604C102.759 104.509 105.091 101.976 107.5 99.6991C117.719 90.1679 130.557 81.5302 143.418 72.9953L143.024 73.2549C153.527 66.5926 163.958 60.2598 173.274 47.4434C177.601 41.5488 182.375 29.2594 177.069 18.1709C171.937 7.68404 164.344 3.63758 158.095 0.243921C132.479 -11.4743 109.149 -12.7804 85.2698 -14.8774L85.1807 -14.8817C73.3604 -15.6611 61.7033 -16.7426 51.0789 -18.8452C45.8286 -19.8926 40.7416 -21.2897 37.1612 -22.9416C35.3463 -23.7643 34.0162 -24.6533 33.4779 -25.1896C33.2 -25.4574 33.1328 -25.6037 33.1753 -25.5952C33.2176 -25.5925 33.3493 -25.426 33.4219 -25.2968C33.4915 -24.083 33.7703 -28.9312 36.528 -34.0586C39.1136 -39.333 42.7492 -45.0259 46.7069 -50.7716Z" fill="#FFE682"/>
</svg>
