<svg width="729" height="717" viewBox="0 0 729 717" fill="none" xmlns="http://www.w3.org/2000/svg">
<path d="M88.7638 -38.7067C83.0927 -48.9022 77.4215 -59.0978 71.7504 -69.2933C56.416 -60.5193 41.3164 -51.6585 26.4164 -39.8717C19.0222 -33.7272 11.3028 -27.4643 4.74408 -15.9157C1.61843 -10.206 -1.08987 -1.84858 0.44009 7.11591C1.94401 16.0451 6.68275 22.524 11.0974 27.0522C65.6218 65.9069 115.446 66.2645 167.763 78.6965L167.705 78.6847C219.124 89.0195 271.883 99.9564 317.63 120.21C328.314 125.032 340.368 132.809 342.596 137.502C342.835 137.951 342.887 138.171 342.904 138.194C342.917 138.223 342.934 138.074 342.95 138.092C343.009 138.079 342.688 139.051 341.46 140.393C339.03 143.127 334.31 146.266 329.064 148.929C307.821 159.38 281.951 165.465 256.315 170.84L256.004 170.905C219.164 179.527 183.068 187.897 146.62 200.48C137.295 203.81 128.542 207.191 119.281 212.008C114.573 214.508 109.997 217.2 105.425 221.082C100.947 225.168 94.7496 230.856 94.7995 241.934C95.58 252.52 101.657 257.761 105.972 261.609C110.44 265.321 115.185 268.1 119.611 270.439C128.722 275.182 137.619 278.641 146.883 281.95C219.238 305.914 292.801 318.654 366.554 332.71L366.216 332.638C422.216 345.592 479.134 357.259 531.55 377.615C537.701 380.162 544.393 383.285 549.767 386.574C555.371 389.912 560.502 394.468 561.275 397.585C562.357 399.788 559.67 404.349 554.61 408.263C549.873 412.067 543.559 415.593 537.547 418.542C512.378 430.538 484.849 438.772 457.121 446.795L457.053 446.814C426.099 456.127 395.46 465.093 365.163 477.428C357.898 480.461 350.028 484.013 342.907 488.193C336.125 492.68 327.194 496.737 324.29 508.557C323.282 514.834 326.785 520.159 330.099 523.41C331.824 525.12 333.386 526.366 335.386 527.783C337.181 529.037 338.842 530.061 340.822 531.182C348.073 535.242 355.996 538.389 363.513 541.078C425.402 561.421 488.591 570.997 552.251 581.918L552.103 581.888C612.431 598.467 687.327 601.694 726.095 650.334C728.423 667.046 710.946 678.858 698.125 688.616C684.091 698.564 669.47 707.043 654.508 715.563C654.67 715.854 654.832 716.146 654.994 716.437C670.108 708.155 684.882 699.921 699.187 690.131C712.131 680.307 730.681 669.56 728.739 649.788C687.581 596.285 613.933 594.329 553.401 576.13L553.253 576.101C489.997 564.201 426.583 553.378 366.631 532.54C359.435 529.834 351.905 526.666 345.545 522.952C339.302 519.494 332.89 513.588 334.055 510.106C337.28 500.44 355.481 492.965 369.186 487.326C398.744 475.846 429.484 467.368 460.453 458.612L460.385 458.631C488.59 450.944 516.327 443.263 543.474 430.904C550.033 427.806 557.063 424.125 563.312 419.315C565.051 417.965 566.63 416.588 568.05 415.16C569.685 413.51 571.147 411.768 572.413 409.782C575.175 405.637 576.817 399.413 575.191 393.787C566.284 373.614 550.602 370.533 537.476 363.683C482.693 341.408 426.437 329.116 370.292 315.103L369.954 315.031C296.932 299.909 222.907 285.591 154.297 261.542C145.675 258.315 137.498 254.921 130.074 250.886C126.498 248.936 122.905 246.649 120.458 244.513C119.108 243.338 118.286 242.419 117.727 241.581C117.486 241.21 117.398 240.994 117.37 240.894C117.351 240.81 117.411 240.939 117.425 241.126C117.445 241.316 117.408 241.533 117.409 241.551C117.412 241.572 117.463 241.435 117.669 241.134C118.064 240.542 118.97 239.55 120.214 238.529C122.64 236.522 126.083 234.452 129.886 232.533C137.452 228.744 145.572 225.708 154.307 222.758C188.812 211.46 224.923 203.637 261.506 195.724L261.196 195.789C288.056 190.504 314.315 185.287 341.018 172.851C347.865 169.395 354.619 165.732 361.323 158.789C364.618 155.229 367.999 150.612 369.542 143.989C371.106 137.506 369.717 130.348 367.124 125.283C355.979 106.559 342.243 101.766 329.763 94.9054C278.668 71.4013 226.255 60.1595 173.807 48.5931L173.749 48.5813C124.788 37.5663 65.7741 27.3688 35.0286 3.89649C34.3019 3.12485 33.8204 2.43459 33.6255 2.05365C33.4236 1.66122 33.4881 1.63963 33.5246 1.77687C33.5719 1.91078 33.5466 2.08687 33.6116 1.84816C33.6715 1.63914 33.9052 1.0045 34.3536 0.229134C36.25 -3.24273 41.698 -8.57033 47.5897 -13.0778C59.6205 -22.3155 74.0659 -30.6528 88.7638 -38.7067Z" fill="#FFE682"/>
</svg>
